<mxfile host="app.diagrams.net" agent="Mozilla/5.0 (Windows NT 10.0; Win64; x64) AppleWebKit/537.36 (KHTML, like Gecko) Chrome/131.0.0.0 Safari/537.36" version="24.8.9">
  <diagram name="Page-1" id="8342lF5UWFunwGUP1r8X">
    <mxGraphModel dx="2023" dy="624" grid="1" gridSize="10" guides="1" tooltips="1" connect="1" arrows="1" fold="1" page="1" pageScale="1" pageWidth="850" pageHeight="1100" math="0" shadow="0">
      <root>
        <mxCell id="0" />
        <mxCell id="1" parent="0" />
        <mxCell id="Z66Em0c3-RXHQDbWvUpa-1" value="" style="shape=image;imageAspect=0;aspect=fixed;verticalLabelPosition=bottom;verticalAlign=top;image=data:image/png,iVBORw0KGgoAAAANSUhEUgAAAQMAAADCCAMAAAB6zFdcAAABC1BMVEX///+MMiPhU0MAAAC5RDSIMSFeHxnysKnlVETCRzisPi+GHgDgSDTl1ND43NefOSrOTDyJKxvgTj6lZVjnfm+BgYFoaGixsbEvLy+oqKjFxcWQkJA3Nzfw8PDf39+JiYny8vJycnLR0dFISEigoKB3d3cdHR3MzMzj4+O/v7+GIg1UGxZaWlo+Pj4oKCjZ2dnxuK91KR7Fn5by6OWIJxVmIxvvoZjxq6PqiHzjnpXiWUnfQSxPT09gYGAfHx8PDw/AXU/Ho5vYrqf30MrbxcCnLhvka1y5iX6aTkC/OCX75+PjY1Pzw7zTtrCvdmmUQjLEe3GsXVGrXFDJV0eCDADrlYjneGigXE/Pin9vaWJNAAAK9ElEQVR4nO2de1viSBbGIcEVNbYShUAQEm4SbBRbbHVUZHra0e51+zKzts73/yRbpy5JJRWuxgWTev8ilaRS51enTl2Sp0ilpKSklkH2ye+riy7DYmWfnB5kNOV40eVYnOxP6YP0SiaraA8JpQA+kE5jBoqeSF/of8oBAcoASbtMGAXqAzwDRCFJvtA/yTECPIME+YLNE/AzSAiFvp9AkAGmYC+6kK8qO0hAZBBzX+Ai4TgGsY6OOxsCgXAGinK1u+jCvpJ2clMz0CUDyUAykAwkA8lAMpAMJAPJQDKQDOLHoP/H5/7osxEx6N/+YUde8qhkn5z+qel3Z5/t8PMRMLBv77+cbnxVlvTdVB9WSNaziq5r2t3Zf/4tXvFCBn1k/8bGaS69spbVlFX71S2aVfY9rBGtrBODgMPDRZDDCxj0v33/cQD241vWFFhrOv//WTeN7JMDvErGGFAOV5cXxxyHORlsfvuefmT2uwyAwjK1iE22TsgzILZo+sPu8Tty2RwMNj/tQP0HblmjV2lKSItbkDbZQqHAgHDQtN3Vd/aMDOzNk52NjYOQe1wGivZu0aa7Gs+Acrjc/RGCYASD7MNOOtT+N8wAc9ianoGyPcL+N84gOxODFckgUQzSa9mwexLEYOXDx3992FpTskEQCWEA9mO9f/+RcEgUgxXXfqb37/3+EHMGgv0ChzgzWBHrfxSHuDJY/4BMfD+egcthNIK3zACcfHt9C3nCWBAfP3wY4wNvnQHGACDWttJhLgHWTzA/Dgx4EhnOJSZXftwYuCTAJaas/HgyoCAyswGIIQMlm5nRCyQDyUAykAwkg7gywEMlJYNm0iszDRFiwYAYv72WWd/aSmeU7e1t9Gt6FG+aAVkhwbanmclkTZWjQs7ElcE2rveAif51ZYICsYjp3BnWUEIMCltbz8Z2DUW+X5AMJAPJQDKQDCQDyUAykAwkA8lAMpAMJAPJQDKQDCQDyUAySEkGIMlAMgBJBpIBSDKQDECSwUzf7k/FIBvb9874uwLhexOeQZZ8yEy/U4glA/dzE/5jDGBAv08hyZM/yXnbDDgWCvv0JjPtJzgxY8D7RWbWz9JixkBJ/PeJkoFkIBlIBpKBT7quZU5zY/a8iDcDXdeVh6eLs/Pffv71Iz0LiDgwQJWPzN/9dXa+yoRA/EQgpiPxxhlA5V9C5a+G6fyfn39P4RJvmsHl3e4o8zkQqG18SY8LlG+YQfb3n7+tHk8gADpePb/4bzzXD7JbudP0X4jDeJ1dPF3qekzXUPBaWi6X+/H3SA5nF3eXEDJivJZGr8ohfxA5oPpXiP1KAhgQDjmOg1f/TElgQP0hhzhc3Cl++5PEgHDICPYnjUHi3i8knYGuaTMx4DdQjQMDXbvSns4+P8+wl+jT7f3z4wgOy8ngcTQDVP/K0zku66x7ytq3J8+5kB1FPQZXy8PAvqdb3wYYoPpXdlfdbbfn2VsYcdg5ffRzYAw07cwOL9BC1L8/OPUzgF1kL4599TT3HtOwwzDnD4SBrv8as7f7QtT//nhKGcDu0krAftBL9hq3EYccDRDAQLv6tTx7K3sCX1jPwq7Sv8J2W49gz/n+t+9fDg5OV9a05fMBpv79n6PsB0Xy3wP9b/c/vi6lDzDZ405G9h8UY5+y3ErG/3CMl2QgGYAkA8kAJBlIBiDJQDIASQaSAUgykAxA3x/D/mwpjIF+9WvRhX0tbT5viAukIgNd212etdLodfsl6AsCA/3qKc4EQEFfCDCIuQ8w3T7zvuBjoF8lggCI9wWOQUJ8gMnzBZdBgnyAifkCZZAwH2AiFDCDBPoAE1BADBLqA0y3zxtf3w4BxzTN9ivke/vPywiYVuH6umAZleAJp2N0qi/KWlBXRRIetGA5NdXVocmfadLUcoRFruAcm9FlGIVKqk8D94Rz5KWaYzKYTYRrMbL8opBB6r9QaxUa+GeXnnDgYL9Wrh1GCgHllkf5vUZEmFfYNWsOPSjDkUUOgEge/8KY7Gie10NZOXse6WUQ1EnZO2y75proR4umdvwXvUQtVR2myssVFVGb3+OPLWZugS8ncuDDaJ6HnasaHdMI5LgOzyVAWLRV3l9Rz7FvR/E8g4QC1BiOvMS2aSLalWahO8j3SJLZ6nYLJf6RVaM2QGkWC0wVMyAWYSpGodsdWF7Acci5njVAyXWxTGByzZdyQ6u8algdNxExGEbivNeqepMifZGX+z6EXIv2QA149g09MNgl5qHXR5F+taMGRBy1UmDHQ3Yz4r6fghiEtdcLlslGzz+yfSlhRW8EWsy8cmjIBS+7dlOLyDcGri0NEpSIaG2WfdZixzVDGbT5FFq5iMGhwyULELoqPyQYobbXW7xMYAsedkJtOSwVMUC1VGx2Oi0oI1yU73Sa+yojjzsmy6w69RKuTnDoat6iKjebQ+ozPVzTRr1qQqynhqG7i+iCrmGS/IWxSR2jsQQ2QQTR9I2uy3Z4qkW3culoZQ+3O3uPEVM5YjU1EMFoGs5t6GXr3LBmg/MckkDQC3UE6mY3NSOUQ7VuNELvm0fgvyXyE1Xy0KbJRc4X8diUhp4OvbyjcpEhpZKYwQlCSQF+QJhh/TkZ48EPg7kOOxAH6mxSAAURJk1VcqJrC7fNI66/tTi7ilwZy1w1Q9SALrS5R4whOvL1KdSAQ5aRC5akA0Iw2+3iHB6Tp16XCxgD/yCWNBW14eum5lWFq++q6oVZKDpfcLfHUN1hBPf4AelaXIFzEcsDHX2FuofheR/K6Ib6TFBOqSFEUyLjMG9d4/bkhN04m8A+F3GDNXbMwB2BlbxknoGrqnEEXZ0n3MLJHR2eX8odhRj8Y8GNQhkg2e0ycwehF7RrfFCaXxCl6lS9vOeURc5XS/yTfAzqRrN2uI9LyDHA8522dy8ft2oklBu+5OJoBiDbrImegJVXp+hBJ6mnCrKFYpVUbojuMeAdlWdgFzlHLwdqyvIYeOtAExik2DBLrPKh+vJZTktkUBKKFcrAKbp3FDpdngGgcftYKxoGJHaL85lyoKnNIRs47nkCu46EYoUxIEtPjVqzDRbyDAo+/2yObgtjGFS7h8HeshLaGPxd9FwygnDBsHqwWGEMwNJrt4L3PAZlf/TyBz/sJDepiQzEKZM7lqu0eZvNlzNoBBsZWFAIFiuEQUX1jQhUtyeFa7nxAA44POUhibWT2gLURUpIGgRndsHDOeSowTUIPJCrpCYy8JvmuAzwrMk3fh36HmHSWDGJgdj6TZJS9XtINzRSziJL9CQYeDRTExn4Z2w1Vm24m/Evc+Z9z2DTjUkM6l50JqrcUGv3eKvrQiXOrCOxZzFoNzeBgcO3BTKyh4IORagO7xktFi8n9gu4Lxy4xpo3rP7hYWxu4gwF5LPKVEP6JFqTk2IiRJIuLmKPLjOkCNNavWOUXPXoewJ4G2LXD1UWOyf3jQ2c6U251OmU8KSbRVrIpAhxu4JzDs5XZ1QhLKDQodckBmRhpDHogm/ukR6Q9Jc+lWiO6JoGnn4Oq1MysBuBrIq0CDYelx5dk/MTxxXjVWGt2CfcpB2oUreTDx0jcetmZZxVeRSDlDF0j1mR/QyOQke8xj6fEzdcKISmzqV2K58vicnlfL5lpizunNnKt2x2gG4ivuNYuGKvmxVyk5Wy0Tm/WmRoYDfxvKdouWajZ7e8SGSFFgTNlyw6GC34FxDqZHjbaC7DywD7la713Rd+Y2Xe/KSkpKSkpKSkpKSkpKSkOP0P9sZ/6TWYKN8AAAAASUVORK5CYII=;" vertex="1" parent="1">
          <mxGeometry x="50" y="110" width="173.56" height="130" as="geometry" />
        </mxCell>
        <mxCell id="Z66Em0c3-RXHQDbWvUpa-2" value="" style="shape=image;imageAspect=0;aspect=fixed;verticalLabelPosition=bottom;verticalAlign=top;image=data:image/png,iVBORw0KGgoAAAANSUhEUgAAARcAAAC1CAMAAABCrku3AAABJlBMVEX/////mQAAAABwQcx3RtN+TNttP8mFUeJpPMV1RdGCT996SddnOsOHU+RrPcd2RtL/kQBhNr3/lQCPWOzt5vv/kABBQUHo6OiRWu7v7+/n5+f/48nMvutdM7gSEhJ7e3vUw/X8+v5wcHBUVFRlZWXb29vLy8v/yJOhoaHCwsL/+vb/8+bXxfl1QNXd0/Oqltm0neWsrKyOjo728vzCrewkJCRXV1eFhYVJSUk1NTX/69d+R9+MUe5vNtZ6Qt2ukeaaduHm3fhfKcdrN81XJ7odHR21tbX/u3f/r1z/27f/0qL/nCn/pkFpKtWWWfjAp+6MXeOnhOmXceGzluqJYtmihN+EWtbJt+6be92PbNWDXtF6TtBSHbpJBbleLcD/smD/pEX/wIQqGfCNAAAKeElEQVR4nO2cCVviSBqAywDaagvpNMhwLBAM94ZFDgFZESajCKEXT9RmZtD//yf2qwpHyEEfajMW9T7dpjk6T+r1O6pIKUIMBoPBYDAYDAaDwWAwGAwGg8FgMBgMBoPxz8Z7H47FYvjvt/k3/LGgtOoxvAWxL7KBZrNhw38t+Z931WN4C8InHs/uFNeEnSlbW3uLfJ7y2xxKvTgBkxnXTIyGyQuY+Uyzlxjx8k0xFl5mYij14nmpGCq94Prys2J+08RQ6mXbIMboZWfRy97nxeL7mVYvnpeJodbL9va25sVWzNYyMTR72f6xErMghmovTptMshWjr74UezGK0c18mxiTmL018WIrpjGIhfOxyyVi6Pay7XRaimmQ1fJVw74pUe7FRkxD9F7F0F3D1K1nEUOrF8eiGJOX/JeCzos5Yqj14rAOGPxRjLzbEEv3beLFrsTQ68VSjDyIxWJlVxOPWrxq2Hdrir1YiHFekoJ73bwq3BRudlyW05g92r3MxMy6tTwU23dh1MKfazaby+Z3lHr53WEpxjkUw18G4MXlap6cnDRtxOzR7sUoBuKlFGsTL7jQDBouOzHr4WUqxjnS6ossX4twFC8XU2l94sUoRm7dnJ5CeZFbKH/TFocNl8taDK1eNs1i8G2k4fXDaaFQLoOX8pcYgnjBt5AsMolaLyYxyvDuvu0tieQNOF4GXvGy5c2XW5cWYj5T68UgxnEHIxVL7XzsvlweyNe40JR2rrAn75VZDMVeNvVesIh84fp2OMJLAXl397RcLp/KO9dXAy9qX5qaEs1e9BEjt0piuPBwO5rUXxmmLyey6/L6bpAHLy6jGKq96CNGvkc4j7z5MM6jwQDCJZaf1JvThqkpUevFbRDjGHlR+L5dEgHyHvyPUikP6+p80zy9o9eL25BJyg2+rTRsnd7cFCBaBoXC6dXtpevSW2o1Fu8pbVHsxe02inF48uhOcS5ui9ltDtB9w3yLYItmLwYxyp3YHm17PB7nfHMMtKnSULbYAkKrlw9TL3MxDkcYFZTFWwQn92hwYnVTiVovFmIUWE2PZL0Y+QF69K7LQgy9Xj4YMwnEQHQoCzeVIIJky9uQlHtZFOMYekuPsmcmRjlFeYsNeJR7MUfMtlJAYXl278Qp44+orMVQ7MVNxCyUGIfsRQ+KZ7LTQYYZjWyz1YFWLx8/WonZxpkja/cIPDJkVcvayw61Xj5oYkxNCSZ3pxAwOGLkMirLdrupaPXy8aO1GKUFkzscMR75ViztTr2YxOxR7eWDeRqjQGv+nXx+h5v27L61UQzNXizFKMNSCQeMfIfyHvttZjTnkY2YMroHL3gVKduLoTpe5k1JL2bk9d46lAfcmKz3Jbro97IoZlphYNILDbuwbLM87V4sxICXloK9KIYdvnox1HuZ1ZhZJkFHaofDXuzFejcVhlovnxbE6EuM8kDGnH+Ul+x93qLTy59zLRZiHF8fHm4VedlOVmq9WIlxTzLp66PieBw6dDf0TfM7er3Yi3HnReURlZVle58p9vJJ72XelBRFmXjRMsl6iy/NXj4tBswkYh4fvxIv4a+zVHKaU4lqL1YR81gSRYS9IFH0bmtiPGYx6+Jl9qHD0It/HF8ZhUvQqpXJJhBziaHbizFiII3+/tpGYYeijPIoP5ptGjKK2V0nL6TEbCogJq9pURx2Yqj3Yi4xm8qojdpeFPYos11D5uK7Q7sXUyaBmGEe3uJx67ZTmcTQGi//WiLGrTjC9w63bg+IeRpDa7zovFhEDP6juz9rIWYdvBiKr1u/VDJnkpNuL98Ss2khRvc5Fb1evkfMpm0mUezFusQsjZj5D+TQ7OUlYlw0e/l5Mc618WLzaYydGLq92AbMEjHa742h3MsSMeZtZnoxtHtZTCXNzYfZ2tq4nWouhlIvf/0x528Tij2zX49IpZf2f+woYLSvy6Hy92MyGAwGg8FgMBiMtSPgJ1+D2g+Q+wO6J4N+v6h/q98/fTnwCy9wNfgrXBIOae4QPzrk6njIgSM4BKMcx0nJ2TsTRXhcSePXo/vUi8lwkSockhz+iuIcl4GD/0xCqMZFIhHubComUeHgCY6LB9bCS/wgvg9JE6jX4EHgTKoUEZaVRudcVRTRYSSuKQjuc/Eg2JFwYNHvxV8pnpMQiUfATjJyfiDBkItcAlXrpMZE98kBMqxIjoHIgeYliJ8PJPBzwURiNVf/dmQiGRSJIjxuSJh0JVg8g6g4gHFDxdGX1yNuUoLPk8RLoCaR/5XAtYnjjigzUwUNEodwqKSRGK9BCp1DOsUhCGCw8eR0uIFKTfe/sJcDeA+kWQLcVJPn+zX/r7/4t8O/D6MjieSvR1GwUgUdcZQgzSlTgziIVCedmcMaAsUqEFjwEqjhcAtCRaKIDFdMJg9JIkm1QAbnklRHhxUSJv5MtBbhoiR/NC9JDhPUewkm4RSZTLISX+EwXp0oGSi3H8RVIljkSM0NVqftJhDI7Ee0Rq31q3SxeGTwksHtHBr40coG8QacVaSjI6kGNQWSJ1PDY4MCcwTxE6xp/SdJuhU2OCk1h5zf4CWdwNBUX5JcOgAkuChuwNUIVhGsSxUoL4EaDiJcfLR4OeckbeTVabzgfgTdK6FVluLhaobwJlS1QoIOIpA4EqelDMx58bPQfdOZTJGTJjlVJY8PK9w+qbsoXk+gRB1OEMdT4nOOIi/+2oE2KSGrozRXJxFS5Or4IEqk9JzNOnVcq0USPBGH5VOGq0X369CnE5VKNM7FKZoBJyStdqCglMaPisRS4mjScpOSJBV1w03EJSlONKWj8HTm6CCTxMnljx4cUNWlGQwGg8FgrBHZbHbVl/API5vrPXcugHEndbzqi3kBodBrni3XvVB5n4/HwOH53UZNtu97zr3a2bpPPl4gbGAE4fVO/asJqT419UqXn/L5VLUPKTS+UImad+wFi/E99V4l4EPd0PFxLpfLZnO5ripsCOo79oJyF4LgU3uvPYSeb0O4eLf1BZPrwBD4p1czkyMn6vo2+OdXOuOqSOGg96md0Mu/v9lQR1Vxj0vxG77eyy9ttYT6PFRJHz9+WdDA5GWMOzT4yI6FDfU9T2A0ch0eNxBeUDvdn1WT63ZUnofujKctuSdBeHrNK1wV3T4xI/C+/rh7/KMJlT3ujvs8PgPf75LTbVCQRoTcM3yzyXQMomac+oFakw2lxqqgBRzf0ZInxb/vLq0n1JlMVHHU8Go/1Q3lli4AYaIS6vb6KlQmQZvgXnQnr8BzdIQLJtt9msQMGSTPqxedTq97nDPpgZnbcQivEFVemMnUzYJCPP9ES7hgst0LLSHmbmDgGyosj59TU54744s+vCaQ12Zv7euaWcfHv/9mtAA245ub0YZM/OiZrQ2necf3ezoRx31fanVDeCNgaqa1lu9F4NXxYnfv+VLveglgR67XUYXvUkOKUM+YMyF6aq4BPHWFlTYvLJED600fdPQfnuy8d3Kh3vhJ5X28IJgKDm7kT+PUT0+O3zkwQemlOv0N3rfARn+c6sHkZtWXt2LIbGUOns+s+pIYDAaDwWAwGAwGg8FgMBgMBoPBYKwF/we0aCh/QlgqigAAAABJRU5ErkJggg==;" vertex="1" parent="1">
          <mxGeometry x="300" y="120" width="169.56" height="110" as="geometry" />
        </mxCell>
        <mxCell id="Z66Em0c3-RXHQDbWvUpa-3" value="" style="shape=image;imageAspect=0;aspect=fixed;verticalLabelPosition=bottom;verticalAlign=top;image=data:image/png,iVBORw0KGgoAAAANSUhEUgAAAOEAAADgCAMAAADCMfHtAAAAxlBMVEUAt/T///8At/MAuffO8Pxo0voAuPdYzvoAtfQAtPTp+P0Twfvl5OTp5eNMzPsAs/Q1eZNEX2nL3uXb4uS82+dRRDlRRj4lkrsOsOnS4OUYptk5b4Ov1ulOSUNMTUgan82i1ekqiKtIVlne9f252uhDWl89Z3fZ8/3w5+I1wfZNw/BKUVFMS0VIVlpTQTTy+/571/x+zOyLz+sxgJ5BY2+D2PnD6/tOwPGAzexryO1Iw/CY0uo9a35WOyhVPjAZodKg4fuw5fzedBBKAAANZElEQVR4nO2dC1+qSheHcaYISlI0EC/jpbLCa6V7tzt5duf9/l/qXWtA8oLKHeTHf+80YKD1MOsyg0FCCXXx65YIudLN7a9njlYS4Ov6SpSEnBEKgkQv5zbhhSmnbU08kswHTnhtSmmbEpckc46EV3JuCYl0CYS/xbTtiFGEXpSEy9z2oICEryXhJm0r4pVZStuCuEWu07YgbtGLtC2IWwXh+asgPH+5EdKzlgfCm8uz1u4AZp9QvCqdtW4LwoIw8yoIC8LsqyAsCLOvgrAgzL4KwoIw+yoIC8LsqyAsCLOvgrAgzL4KwoIw+yoIC8LsqyAsCDOved4/A742d3lyRujyy8D5Inxw+W3nXBFCD+abcO4GmCfCA7+Qnx/CB9cezBHhwVsq8kJ4+J6RnBDOD98Ukw9CtzqYK8JjgLkgdC30eSJ0L/Q5Iry+OX5X09kTHir0KRK+Xkd5tKNJJh3C15soCT3cHJo04WslSsL5iRhMgfC1IkRI+OABMGHCV7AoOsLTMZg4IQBKJDJCb4CJEoKLSkJkhMdHMqkQAiAoKsJThT4FwlfrqQYREZ4s9MkTvtoGRUPoHTAxQueW+EgIPSaZJAmtGIyKEGIwa4Q/gFEQ+gJMhvBy49Ep4Ql9xGBShBCDPyaFJvQJmAQhlIkNk8IS+n7UTPyEGzEYAaHnQp8c4eU2YEjChxsha4SXu89nCkXoNwYTINx/9k0YQj+FPiHCnRgMSeg/BmMndAEMQeiv0CdCuJtkwhE+BAOMk3Cr0IcmfA6QZGImvJRdE3tAwkBJJl5CtxgMThgsycRK6BqDgQkDFPq4CfcKfSjCwDEYH+GRh9wFIHwO9VzHWAgPumggwhAxGBfhoSQTjDBgoY+T8FgP+icMWuhjJHQv9EEJQyWZeAgPFPqAhEGmSzETHo1B34Qhk0wchMdj0C9hmEIfE+FpQD+Ez2GTTPSEJ5KMT8JwhT4WwsNDtSCEnj7CTpbQg4v6IAxb6GMg9AbolTB0oY+e8OpEHfRHGE2SiZTQK6A3wggBoyL06KIeCaNKMhESegf0QhhJoY+W8MrHn1Y4TRili0ZE6DkGPRE+R+mi0RB6KvSOThFG3INREPoDPEUYXR1cKzShjyTDdZwwesDQhL5iEHWUMHIXFUIT+gY8ShgHYEhCvy4qHCWMtNA7CkUYAPAIYbSF3lEYQj+F3tFBwlhcVAhF6D8GUYcIL2JxUSEMYaAePEgY9UjmR4EJfRZ6R+6EMdTBtYISBgV0J4wRMCjhVSVo3nMjfCbxAQYkDBiDKBfCixh7MCBhCEAXwviSDFcQwiCF3tEeYUyF3lEAwjA9uE8YV6F35J/wysOl+yPaIYyt0DvyTXgb8s9dbhPGm2S4fBLOA9fBtbYIH+IsE7Z8EoYG3CKMs9A78kcYvNA72iCEQh/yYF7kizBsDKJ+CBOIQZQfwqsoDHIIYy70jrwTzq/CFHpHa8JnEm+hd+SdMHyS4bIJYx1sb8kz4W2gGf2+LMKLRJIMl1fCKJIMFydMKMlweSOcR5JkuJAwORcVPBLOww22t3UzTxTQG2EEhf5HN7+Ti0GUF8LbSC0iNKEyYcsDYbSAcDAS5fFO6iRhpDGYhk4Rnj3gScKoCn16OkEYWaFPT0cJ59EmmXR0jPD8YxB1jDDYx2dZ0xHCHMQg6jBhHmIQdYgwwtlEyjpAmI8kw3WA8PwLvSNXwnkySYYIlUpFjnsc7kqYVJIhnU7nLYXPLW4juqp2UtLni6LUk+/DBHWnlMvKZ8yd6EKY0ASVCB9lkPJYITvrf742zNm16qcJ+VlFXFqm14dEflc4om0nSJLM0QeRiCR84DuuFSSZfHyY+DhCq81auI+1SeYL9v4fprSDmCKh0Cwr/XpZ+YMXNiqderNvPpYVpTmSR7BFqY3QVGnUgSbl2ieekk7TkSkQyexDu3rtDQ9Gas365+iurtQfTWkLMT1CaaSUX8xHsB4KBqlATDZrvFPrfxR8V+om9NIbfI//X94lIt/x7VzQqx91a/Glg90L5wHOD+5Xy0ofVvpKuV75REzBIiy/1O6431rvyrssmLC2/v5eh6WRUHks11E2RR13eARM5QscFdcqNSt3bdWCFL0UbPmq4Ln/kggnVEaVyg2ifVYqJmIIPFRNWLIwBAlEatiFkvwH1r1XKgJ4gfIhISG2/AeWOlu5KzVC6RORBKkD3rn20goBTyyXm5g7gAM6ipgmkSUJQ7Yj8wQjww4vn+Cy0KAJ8Sch/buMZ6oP+0s18FY5E4QcRRJkDipZhJJFWINUId1xQkEio/d+H7NNh9sNgYkoVuD1cZXU5BWHEwp4ZpRHKROE5guYBF30Dxp/iJBIo5ryAipbhET6UOxUcmMFqoAtlbvsERLp/QUjTuFpE7LmgT78wEzTf3vjfYglvYmtkcC0CUlWCXm+WEv5I7sT4to6qch2HAo8rVipEpE66K3WN5kjxGII9Y+rjEyyO2GT94+FI5PKO88qmFF5HNdh3COPOHTWCInc55mUq4Pp/kAfcqcUCJJ1ZGmEHv3PCHUDExOgN8kIm1jnIEuEaFDZHntwU78OEH5hmNZw8ALpqFLnQxiQ8vIpY6/D5AsHCjA9yRohzgxhHGYv4bAMCBVOWIORCRLiO5S/O56Qmk3YKlQUR0BIhM6LwpMVApK6YhMqyl36hDCt6HQe7b/jB9GFC/DSB0Lpq9P5QkJ8R0Pf7pq1L/LZ6XRMufOjEbYZ9e9qj+84CSGk3+m8YbaF/d7TJ4ROlGTn4dDWAk8ffIv9Lsvccol/We3hFdbKKHtHQgR7trS7v6NU5/iJqCBMWqJId1cdv6pC93fYaRAvIUELRFF03+qyvjfobVpMcHe6XkNd6BuD1nHEmAlFo1Fdrao9wc0Ksmgbu+2r/1Y3sen3ot2uNgy+u9Fe7Pfn8G9j69h7PyheQtob6hpIXxr7iLQ3+9vY6UWxqm0SGitdm8G/8QB2p4O/2vfeYVR9i9Awdk9arITAwCbVRqPK2MTFlwz1fr8PZxuEZKqzaq/XWOqzBaw1xk+77XcJjfHeSYuV0Jgw6DxKRWPKVJeEsR9Xm4SELvRJC6JQFBu6BmeI7rffI7zXkiQEC7sGRTLa0ixDyPr6LhE2lig4F+Hmrwkp3/akt21zVe686/Yi+CK1miChSHGZH9CY6o1dK2IkJEN9YZ9futRX0AkNdWXljKXawteh5buNp/uxWjVEh1DsqSqEnsqqluHiYgnffavcS0WjOhxP28ZAxa1A2GpPx9OqQcWGqo4nQ7UtJDRqo98TJzPQBoOYowNtyFe0ujoSTmZISFea1h0zrfst2oS01dXwhLTZ2M5Q4KkY1WMD/WGqa93ubAw9jISsqmvjrq4vCW3oXRBbJkUI0aP/0LJxCwj1NSFDwi6Prqo2blAKaXNCLEJq6BoaT781dt9wxgC0pyGhuGTdHqUtVWeccKKt4CgDhmHAvZQmdkUYeCbOQouxb+pKaOg8RCkZzoAGCGlrrLe5ldDzun6/rqYWodhjDAcFVLi3CNkSt0IYoM8aU62xk46SIjTYpOdKKILn8hbiYDgAQm1hqE75pK02+B8bDjBGLUJa1VWefujK8lIrhcHqJ5p0Lt3pQ3dC8Eu9+nPWseI/sfv1IgzaWoMngLxvies+XNrt9wnFpAkhDpmz8M0mrl4qiG19o8aLVdZlk+7mCAiq6YKxrrEmHOoDXncyQAjZZWaPZCDNMfQwL4RsqjLLb50KL0LuXYi2l2aIEIZQljH4Y9o6JAQkFHcJq9xQDoTVQp+2jC6HhlH3Ym1llT2tCZ+y46Vo172VuanBEBYI762K/5NpaEMbWomzV4WigdVCbGgM7BRhZL7OOGi/Tbiw/SAThC0dzjf8fFFYMV6soUKizeCzG9WCWdVCWP47oNbcAszFUg+j2TZ3VAplDg5k1cPWhGF70Rgzd8LkqgVm05m+bBhGQ2UzPrEFq1aG0RromxV/oHUbWBf0LlnPnqiqqzjIm+lPPUM0eirD3rYIweEZHLN3z1wIicraO/OnmOeHgwlMDmGQZY+7wSWhvOn/Lsd81Mb+AiEB42asq82mLYzDv5zQGGsQbbQHqyG5atr4G5dmXTTeUDWNsRkkJCSEcYJFOENCOKdMHyf5OT5tLZZD9WnM1JY9LnmaTpcDo7pCwja+4ji7rQ6fBtx/ByuenGhvhdtEY7BSx7gNg6u14tcEqLFQ79UqaWMckuqKewfsaI3yByqMvBMkhGomwMSoN2Zja1Yj8omSPTN0qoFIoNDx8TImVGvTOsHirJ3urCM42VrqOC1er1xfzaGEbAdiMtfaIFXwGIrmWDhhISJkqN6BK1zb7ZO5mkjpwuVKTSCRqT4gIs6hlt5+dFLXS72cbm8HanRnkyHMEYfezlnWrgh7kNhaqOOx6tUpzpCQZy+DeHWKcyQUfq5JedCZEvpQQXj+KgjPX0DoIy+do8iDYKZtQ7wyS8KvvNz/4yrxV0l4iGhInE3dPJSE0i8xt5EoVf4rAWGObsXbVeWyhISl66vI5jbZkoiASFgq/Xcj5qwfiSBR838lh7A0/32Zq2AkxHz9PbfuaP4/UUpsLWmGNg4AAAAASUVORK5CYII=;" vertex="1" parent="1">
          <mxGeometry x="930" y="120" width="110.49" height="110" as="geometry" />
        </mxCell>
        <mxCell id="Z66Em0c3-RXHQDbWvUpa-4" value="" style="shape=image;imageAspect=0;aspect=fixed;verticalLabelPosition=bottom;verticalAlign=top;image=data:image/jpeg,/9j/4AAQSkZJRgABAQAAAQABAAD/2wCEAAkGBxISEhUSEhMQFRUVFhUTFRUVFRUVFxcYFRcWFxUVFRYYHSggGBolGxcVITEhJSkrLi4uFx8zODMtNygtLisBCgoKDg0OGxAQGy0mICYwNSszODUyNSstNTItKy0tLSsrLS0tLS01Ni0tLS01LTAyLS0tNjUtLS0tLS03LS03Lf/AABEIAOEA4QMBIgACEQEDEQH/xAAcAAACAwEBAQEAAAAAAAAAAAAAAgEDBAYFBwj/xABAEAABAgQEBAMGAwUHBQEAAAABAAIDESExBBJBUQYTYXEygZEFFCKhsfBSssEzQmJz0QckNFNygqKSwtLh8SP/xAAaAQEAAgMBAAAAAAAAAAAAAAAABAUCAwYB/8QAKREBAAICAQMDBAIDAQAAAAAAAAECAxEEISIxEjOxBVFx0UHhNIGRE//aAAwDAQACEQMRAD8A+4rJG8RRzXbq5jARM3QRhrFTibeaSKctqIhHMZGqCuHcd1sVT4YAmAqea7dAjrrVA8IQIQ2VURxBkLIGxWnmkw/iTwvivVTEaAJihQWvseyxJxEO60cpuyCYdh2Cz4i/kh0QgyBVkJuYTNUC4bVWR/CUkUZbUSw3kmRsgqC3JOUNln5rt0ERblXYa3mpYwETKSKcpkKIGxNvNUwrhWQjmMjVO9gAmEFqwlPzXbrRyhsgiB4R96qvE6KIjiDIWTQvivVAmHv5LREsexVcVshMUVbYhJlNBWha+UNkIE93G5SmJlpsn546pHQy6olVBIGeppJBbkqK6IYclDrshzs1B3qggRZ03om93G5SCERWlKqz3gdUCc87BSIeaqXkHona8NoUEH4LVn+igPzUKl/x203UNZlqfkgbkAVmaVS+8HYJjGBpWtEnIPRAwgg1ma19VBfloEwjAUrSnolc3NUfNBIOe9JIMPLXZQwZL67JnRA6g1QL7wdgm93G5Scg9FZ7wOqBDFlTZSG56mmiUwiaiVUzXZaHvRAFuSorooEWdN1LnZqDvVKIRFTKiB/dxuUvPOwT+8Dqq+QeiBhDzV3QTktWalsQNodErxntpugA/NQqTBlWdq+ihrMtT8kxjA0rWiBfeDsEKPdz0QgTlnYq+G4AAEq1ZI3iKB41bV7KIIka07p8NYqcTbzQS94IIBCz8s7FEO47rYgQPG4VEVpJmKqt11qgeEIEgUnOndNFcCJCqXFaef6JMP4kENYZ2K08wbhS+x7LEgdzDM0N1bBMhI0VkOw7BZ8RfyQPHrKVeySE0ggmibDaqyP4SgnmDcLNyzsUoTY72pBgkCLEY0moBPxHs0VXsRMzqHk2isblohuAABIVcYTNK9lkhYyHFmYb2uHQ/ULbhreaTExOpImJjcFgiRrTurIjgQQCEuJt5qmFcLx6OWditIiDcJ1hKCyK0kkiqeBSc6d08Dwj71VeK0QNGMxIVVTWGYobqcPfyWiJY9igOYNwhY0ICZ6rVCFAjkt2VT3kGQsEE4i4UYe/kmhjNdTEblEx2QPEFD2WSZ6qxsQkyOqu5LdkDNCzxjVBilWMYHCZugjD6po4olifDbVKxxcZGyBGmoWvKFWYQFVTznboIeanuVfAFENhAiZ1qkiOymQQTiNFXBNQnhnNdcpxfxW3Dzg4eRjfvOuIe/Qulpprss8eO151VhkyVx19Vmzi3ilmFHLh5XxiLGWVg/E/rsNV8vxEUvcXxHFznGbnEiZNazNttAJDaSR7ySS5xJJmSSSTO5nrOc6nSqgHy0vK0v1rQaq4w4a4o1HlS5s9ss7nw972dGcGtcHODh+8CQe66XA8UvFIwzD8TZB3mLH5LlfZ/wCzb2/UrTNb8mGmSO6EbHmvintnT6P7L9oQ43geHUqNR3Bqt8UUK+VMeQZtJBFiCQR2IXvezuKojZNijmN3s/1sfuqrsv0+0daTtZ4fqNZ6ZI18Osmeq2gBZ8K6HEYHsq1wmDX7mo5x3VfMa6SsoncbhEY1Ksw+qljA4TN0sT4barx6eOKKhhqO4VkN2YyKd0IATGlUFmUIWXnO3Qgs946fNHKzVnKaTklWNiACRuEETyUvPyRmz0tqoiDNZENuWp7IJ5MqztVHvHT5pnRQRIaqrkFA/I6o5mWl1LsQ1omTIATJNAJXJOy8qB7dw0aJkhxobnGgEyJ/6ZivksoraY3EMZvWJ1MvU8fSXndGTLW6Ifw31UveHCQusWSOfOkr0uj3fr8kghEVV3PCBOdKkrU9EZM1baJHwzU0lec9F8+4t4wLgcPhnfBUPit/e/hhn8N5u103O3FitknUNWbNXFXctfF3F2TNAwrpus+KLN3aw/i/i0724DzvUz3nvvrPulAUq4xYq441Cky5rZbbsYnqPIdR06TRPqPTy22+5pULY1ve9nfs2/epWhZvZx//ADb5/UrRNb48I8+UoUTRNB2fBWIIgvFwIhlXdrfvzXQ+79fkua4Khkwokv8AMl/xaun5wXP8v3rOj4fsVLzMtJTkiWfpLzSvYXGYsmhnLfVR0kZMtbo506SvT1UvdmEgqxCIrtVA/u/X5IT88KEFmYbhZYoqUi1wfCECYegM6IjmYpWqXE3CjDX8kCw2mYoVdHxDGNL3OAa0FxJNABcp4lj2Xg8RYN8bDRYbPE5okN5EOy+cpeaypETaInwxvMxWZiNy4jibiV2JJZDzNgjSxiazd02b5lc/66f+vv5qHNIJBBBFCCJEbgzsVH3YLpceOtK+mvhy2TJbJb1W8uz4e4yLZQsUSW2bFqSOkQXI0zXpWa7vCuBk4EFpEwRUEGxB1XxFexw/xHFwpyj44RM3QybTuWH90/I/NQeTwYt3Y+k/ZYcX6hNO3J1j7/y+vOcJGoWOIcoLnUABJJoABck6BYMH7bw8SEY4iNDG1eXULOjxodt9Jr57xfxW/FuyMm2ADRpoXkWc/wDRvrW1di41721PTXlZZeVSlfVHXfhr4v4vOInAgktgijnVBiy+jOmuuy5OaSaJq3x460j01U2TJbJb1WPNE0k0T7LNgea9bh72BFxjpMk1gMnxT4W2mB+J0jb1kva4V4IfGlFxILIVwyz39/wN+Z6L6BAgtY0MY1rWtEmtAkANgFCz8uKdtOsp3H4c37r9IfPPaWAbh4roLCS1mUAmpM2gknzJWaa9LiY/3qJ/t/I1eXNWOGZnHWZ+0fCszREZLRH3n5NNE0s0TWxrdxwG4cmJ/N/7GL2i07Fc7wX+yf8AzD+Rq64LnuX71nS8P2KkgmQE1XiKylXskj+I/eisw2qjJJYAkaq57hI1FkuIss7LjuEBlOxQtqEC5BsPRZ4jiCQCUc89FY2GHVOqCIAneveqmOJClO1ErzloEMdmoe6BGOMxUrTkGw9FW6EBUaVVfPPRBzfFPDTcTN7JNjDXR4Fmv67OXzaNCcxxY8FrmmTmmhB6r7kII6rn+KOHYeJFJNitHwROl8r92/Maag2HE5no7L+PhW8zg/8Ap308/L5ShXY3CPgvMOK0tc24PyINiOqpmruJiY3CjmJidSCKS3/SyzvZLt93WiaJrGaxL2tphkmif39+asiQtR6f0XocPcPxsY/LDEmjxxHeFv8A5HoPktN9Ujdm+m7zqvlgwmHfFe2HDa573WaKk/0F6r6bwxwSzDgRY+V8ahDbshnp+J3X03Xs+w/YEHBMlCE3u8cR1XOlL/pHQUXpteXUNiqnkcub9tOkLjj8OKd1+sqw47n1K1ZBsPRJyR1VfOPRQk5894q/xcXu38jV5U16fFB/vUXu38jV5S6bB7VfxHw5Xke7b8z8pmiahC2tLueAQDBiUH7U/kYvdLzufVc7wNEIgxJf5h/IxdTyB1XO8v3rOm4XsVEJoImQCkj0lKnaihzy0yFgmYM19FGSiwTM1r3Vz2CRoLJHty1CQRSaUrRBXnO59ULRyB1QgT3fqpEXLTZPzm7/AFVT2EmYsgYjPW0lAbkrfRTCOW9FMR2YSFUEGNOkr0Ue79UrYZBmRZXc5u/1QJz+i8niP25BwsPmxDMuoyGJZ3kUpPQanT0Cy8UcRQ8E34viiOBLIYNT/E78LZ6+i+Re0vaMTERDFiuLnH0aPwtGgGymcbizk7rePlC5XLjH218/DT7V9txcTFMWKRsGiYa1v4W/Wara+dQsM1LHyr9lXVNVjUeFHfdp3PlumiarZEBTLc0Gmvf4Z4pi4Q5fHBJmYeoncsOhnoaHpdc8hYXx1vX02jozx5LY7eqs6l9v9ne0YWKYHwXAt13B/C4aFaeXlreX/wAXxL2X7Ti4aJzILi12uocNnDUL6jw7xVCxjcngjSrDJvK5YdR0uFScnhWxd1esL7i86uXtt0t8/h7vvHRR7ud0vKdt9Fdzm7/VQU9814qEsVFHVv5GryZr1eKz/e4vdv5GryV1GD2q/iPhyfI9235n5SiahC2tTt+A4eaDE/mn8jF0/vHRc1/Z+8CDEn/mn8jF0PKdt9FzfM9+zp+F7FTmHmrupBydZqYbwBI3SxfitVRkpJfmpZRyZVnavoohtLTM0CsdEBEgb0QL7x0Uqrku2+iECSWuDYJ1kjeIoHxNwow9/JPhrFTibeaBolj2XhcR+0ThsNFjATLQMo0zOcGNJ6TcD5L1Idx3VntHBMjwnwogmx7S0jvqOov5LKkxFo34Y3iZrMV8vz9jMW+K8xIri97qlxuf6DoFSvb4o4aiYJ8jN8J3giS/4u2d9dOniLoaWrasTXw5u9bVtMW8hen7C9hRsW/LCbQeN58DB1Op6Cq9jhbguJiZRY2aHB0pJ8T/AEzsP4j5L6n7LwkOC1sOE0MY0UaPqdz1KicjmRTtr1lL43Ctk7r9IeF7O4NwsOCYJZnL5Z4ho8kWLT+4AbAec1wnE3DsTBvk74obvBEAof4XbO+v0+0Psey8zF4VkVhhxGhzXCRB+6HqoeDm3x23brE+f6TeRwaZKar0mPH9viM0TXv8V8Lvwhztm+C4/C/Vs7Nf1669Fzs1f471yV9VfDnsmO2O3ptHU00zXkEEEggzBBkQdCCLKuaJrPTDb6Lwrx5OULFkA2bGsD0iDQ/xW3kuyC+ETXS8K8YRcJJj80SD+GfxM/lk6fw27Kq5X0+J7sX/AD9LbifUpjty+Pv+2/iv/FRP9n5GryZrd7fxjI2IfFhnMx+Ugyl+60GYOoK8+ascETGKsT9o+FbnmJy2mPvPyZCWaJra1O24E/YxP5p/IxdkCuV/s6/YRP5p/JDXulc1zPfs6jg/49TxvEfvRWYbVPA8I+9VXitFFSz4iyoZcdwmw9/JaIlj2KBpoWFCBuYdyr4bARMhR7uNylMQtoNEBGMrUUQTMyNUzRnqdNkOblqO1UDvYACQFn5h3KsEUmlK0Te7jcoExWChxWGHEY1zXCTgdZ/r1XMYbgXBQomcMe+VQ2I7Mwf7ZV85rp+eeiZsPNUrOuS9Y1WWFsVLTu0bEGs51UxWgCYood8Ftd+ihr81CsGZGxDO60cobBIYIFa0qk94PRBViWBwcxwDmmbS0iYI2IXzDi3hJ2GnGggugE11MPod29fXc/VxBBrWtfVJEMptkCCKzrOdwpHH5NsNtx4+yNyeLTPXU+f4l8CQuz4v4PMPNHwzSYd3wxMlm7m7s+na3GLosOauWvqq5rNhvht6bBCELY1PVwZ+Bv3qVdNUYPwDz+quWTGUzRNQhB3PALyIESX+afyMXYCGNguU/s9gzgRCZ/tT+Ri6XnnouZ5vv2dVwf8AHqiI4gyFAng/FeqGw81TqhxyW13UVLTFbITFFU15JAmna/NQ/JMYIFa0r6IH5Q2CFT7weiED+8DqlMMuqNVXyzsVfDeAJEoFaclDrshzs1B3qojCdqqIIkZmiCRCIrSlU3vA6pnvBBAKz8s7FA/IPRM2JloVYIg3CpitJMxUIGd8dtN1DWZan5KYPwznRTFcCJCqAMYGla0Se7nolawzstHMG4QIIwFK0p6JXMzVHzSOYSSZK2E6QkaIFaMl9dl8/wCMuDwc0fCtP4nwQPV0MD1y+my+gxq2qkhtIMzQLdhz3w29VWnPgpmr6bPgQKlfTONOD2xpx8NIRbvh2ETq3Z317r5m4EEggggyINCCLgjQrocHIpmrurmuRxr4Las9PBn4B5/VXTVWDHwN+7ldF7J4UxEaTnDlM3cPi8mTn6yW2+WmON3nTTjxXyW1SNvCJXt+yuGMRG+It5bPxPFT/pbc/Jdp7H4dgYc5smZ3431M/wCEWb5Be094IIBVXn+p/wAYo/3P6W+D6T/OWf8AUftj9lwIcCE2EwGTRcymTq49SVfyD0Scs7FaREG4VRaZtO5XNaxWNR4VtiBtDOiHDPbTdJEaSZioTwaXovHqGsy1PyTGMDStaeqIrpiQqqmsIIMkDe7nohXcwbhCB1kjeIpJrXBsECYaxU4m3mkxNwow9/JAkO47rYkiWPZZJoB11qgeEJ2iizR7oHxWnn+iTD+JPhtfJNHsgsfY9liUtNR3WySCIdh2Cz4i/kleanuVfh7IEw2qsj+E/eqTE6KuD4h96IECw+1+E8JiXF74cnm72HKT1doT3C9shYprKl7UndZ0wvjreNWjbBgfYeHw5nDYMw/ed8TvIm3lJevhreaeFYKnEX8kte153advaUrSNVjUHxNvNUwrhPh7+Sui2KxZHWEomtoCBIHhH3qq8VokjeI/eisw2qBMPfyWiJY9ikxFlQw1HcIFQtslKCvkt2+ZVT3kGQsp946KRCzV3QEIZr1UxG5RMU0UE5KXmoDs9LaoFbEJMibq7kt2+qTkyrO1VHvHRAhinf6K2GwOEzdRyOqgxMtLoJi/Dak0sNxcZGyYfH0l+qCzLW6BzCArJUc52/0T8+dJXop936oGbCBEyL1VcRxaZCgU86VJWp6KQzNW2iCIXxXqmewATF1BGTrNRzM1N0Cc12/0V/Jbt9Unu/VR7x0QK+IQZA0CeEM1TVHKzVndBdkpfVARRlExRI2ISZE0KcOz0tqgwpVnZA/Jbt9VRzXb/RP7x0U+79UEw2AiZuli/DaiOZlpspAz9JIFhuLjI1CsdCAEwLVSlmWt1HOnSV6eqBOc7f6IVnu/VSgr5B6KxsQNodFZnG49VniNJJkCgZ4zVCGNy1PZTAMr070UxzMUr2QDooNBrRV8g9FDGmYoVpzjceqBBGHVI5hdUKssOx9FfBIAkaIFZ8N9VL3h1Aoj1lKvaqSCJGtO6CRBIrRWc8dUzniVwsuQ7H0QWGETWlap2Oy0KdjhIVFlTGEzSvZAzzmtolbDLTM2CmBSc6d6J4rgRIVQHPHVVcg9EuQ7H0WrONx6oK2xAKHRK8ZqjskiNJJkCrYBkK070QKxuWp7JnRAaDVEczFK10VUNpBEwUE8g9Fbzx1T5xuPVZSw7H0QO6GXGYsUzDlvqmhOAEjRJHrKVe1UDPdmoEghEVpSqIIka07q57hI1FkC88dULPkOx9EIIWuDYIQgqxNwow1/L+iEIL4lj2WNCEG1tllj+IoQgswuvknxFlCEGdlx3W1CEGJ9z3K0YeyEIFxOirgeIfeiEINZWFCEGuFYKnE38kIQGGv5K6LYoQgyLaFKEGSP4j96KzDaqUIJxFvNZ2XHcIQg2oQhB//Z;" vertex="1" parent="1">
          <mxGeometry x="-240" y="130" width="100" height="100" as="geometry" />
        </mxCell>
        <mxCell id="Z66Em0c3-RXHQDbWvUpa-5" value="" style="shape=image;imageAspect=0;aspect=fixed;verticalLabelPosition=bottom;verticalAlign=top;image=data:image/png,iVBORw0KGgoAAAANSUhEUgAAARMAAAC3CAMAAAAGjUrGAAAA0lBMVEX///8lLz7/mQD/lQD/kgD/lwD/kwD/kAAcKDgfKjoAACEaJjdlanIiLDwAFSsAEikNHTAVIjRscHgADifl5ucAAB5+gogAByQIGi7Y2duusLQWIzXy8vOlp6v/69n/zZ55fYS3ubz/8+eZnKHBw8bQ0dOMj5X/38L/unTr6+xeY2xWXGXHycvf4OH/+fL/0KT/pTn/rlX/6NNDSlU4QExKUVuSlZouN0X/17L/xIr/qEL/2rj/tGX/rFD/zqD/v37/nh7/t2z/x5AAABQAAAr/oS3omXt+AAAOoklEQVR4nO1caWOqOBeuIqJQEUQF963WWq2t3bTVXtvO9P//pZctyQEStS2od948X2YuhpA8nP2Enp1xcHBwcHBwcHBwcHBwcHBwcHBwcHBwcHBwcHBwcHBwcCSEZrk2nE6nw9r42Cux11K76NVb9d7F8RZTq3cfDNNQXRQNU7l+nh5rLWfl1rlmqpal2bBUw3yq1ssHXsK4fm4UNSWfAijkdFW+voiO7ZY8dOvM+aZVf8zlze4x1Wb4p/qjqSlwLal8QzNy1QO+o/qDrOVSVORUJbzzqprzoBglxoSDSkPxhuj/1BhjWmhMzngO/aJaedpaCo2i0vrlVvfDuCpr1CWglaiPQamtNvBvFYY8m+R25Zrx3CIeog/g9drC2rIYLcfiOEZUKw32EjzkKz14R4+sObgbjKkK7pbpz70gYyyon4NKYetiCqz3EB8mW14KQQXqT1MmbD1RJ33Wwb3qkDoGSJsJLneLqR1odGPbPB3Nyj6U2KRA6/ZAVI0uBE9QFzW6CVhgccidk6vd3a+I8R7iww3ltVBl1wC+oaXhyyrVE8jwTrhlgjExORrRzEFoOYW8ojRsUww5PignBUWzA4GiktftKMXSg3ZXATu7MfBl/Zky6VAN3FqkPRgYJRnTXQtIbUM1c5NStVrtnj+opoo84+E4yWlGvlsfooCxPB08mIEIQQb2nohS/oEyKZAjBwYtROniycEeH8F70I3qFMhmc9iayK6LPhAnOUu+joaJ5a4M1AgKyiWxjzSDch2MdTRaaJfDUxN70wPyJV9SbupN5EYqN/nBPr+Dspkq6PKkR/+1pgFSKuStAeWwKAaFqJbHZpfyXDLGxC8DiIkcDZ+9+6rqv4zFxgdFLjyzM6wxMDfQfxBO9Oj7DNvtghKduI7Vq/CIrpWB2aXHPYfC9pQTiHMOBKTAGkQNCt4vEjIj+owSnoCEfYCnxi82lDyAPBvk6gXNayCg/eYffFKsqLQTK2xg202iuEY1od3EgzpYPfAfJAKxIpqveFQUFj2NtUXizYFiEdNMtcqng6ZJ3f0Er78RNihjf79KFxmWwiI8K/HW4HYSHkd5Pi08Upwm3Ub6QNGY/bKRNET06xybE5ANgSedtpwAcwolAoTm4Q0js2CrGtKGiMMmnhgEuSRLOnF7cjbAOW4gziAvNSzoKLmzyL3hDKBWpM1JfJFz7ymDaIkCq2qEqpBBQZUEZzSK7cLhODEnkNABMef6aQsKcbswugevOmRBp8icONYHuadQBkA8DPxhCGI947hB2w4QToJJfwMrjxkwKKieVHTiDmQiQnUl7MlzgcIkzCTU80jcczpgcUIirKBBQTS4ER4iKFijJOlS0MEEynOK+XyyrLA4ITXXoJeQoQSgQUF5ILYo6LOagVpUSpdLx+svQTTH43FgoSxOSG0+YFCQDPiSgXZpwDux0w3b3kGo8qio1iFbOlGU69WJLpuGDdNcXFdbF24Sz+SExF0myPGQDPgWBMWmRdiBwOIQKdU+RpoqDdUoHSmqLV/mDa1BVlTINTTLMCbPU+KLQ5z0iEMFOR5yKX4t/tKnCBoOonVmuI4FQkEgLU7F6+C2pTaRdWplOq9bJGgIcUK0XwEGxY9QkVYgKYOxDTal0TzobEjv7uQ0+emgtDRLMqMxGlpYqACPzUIhha+hsAVFrpg4jdyHcz1agbtWZKwlr8mlA7QAPQytnY1AOickGiUGBWka7nGgSN/AakLky6DtsfmkshqBijk5zNmC+o5eJJsTUgQhBgXlLNjJojCGDMFGm1aTdFdkaawl5Sq00nXcaMmRBxds7MMJaWmQTM43S3lcQECVA2JzcNE/Unkhi1JUljZbD4mblYtgbzSnqWZRWSxSmnM4R9MDK4twcomNJXrjqBxPtos8CbE5uCnKaCR76yqZVvAACl5FKmFSmgHfp9s+r4ae2CwPe8/XusH0OzBGR9YCSQUI95HMoayImBN1+9ouulaR5g1z4SJWzJiAd1GQLylvYNxixSdnoKWBwg9kPUBaiGpSiCbcFKW1fUIYXqYMPRLGaYkWEoagO5Uv0E9ZkW5NlBNcg0P7W6DyNBmDC9W+OuHccb+i683gwQyb3EqSPnkCAtcCQ023cUJciO7+G6kizAqRiUGNIGyYGWd1ohi3FkbQsCXYHR0DnyOzzuJt4+QMW2gjkBsFGjpI9zwOcPSeY53pomE4MaCsyMmFKaD/z1buGjYaFE5wS8MzKMgRBfIYFLJ4bgZnSd+szU8b8MxBclU4ktkG89YAhts4wQmil8/4UXswGENjvI1gExTtH25Hc0FISfC4BfB0GnNQj1UrcEDyWLfSjsrTXTgGKV/etQKoZPn9bcGceW9b9G0Qc7JFuUlRjHYIC7c0nMYpEqmQWiBBc8oHOB9gnHLbBnDqxUwqbhsTT7wlVjjHJp9GHGbM4QH9I3QwCc3g6CdWtkjpZDeIZUsV2aezfwdwTmRL442UA0FJgKwT8eoYFOTaQwEqMuWOaJR8fiilk90gynMITthyAo//0vJY3NJQcT1JCekYqqk4tKHZqGcDd4FwYiTljMH5KbY9gUddTcrvOCwt3qC9R0wF2otFOmXU0skOgOQsMXsCE0CdMaYHz2EZlJVgOdLqyFZE/DrSKQMnT6zSyVaAU3RsN/lbgGyHel4zIEopRnKPRuS6KPSIiBOyvdoFMic/OjhQxeFUWDtjBEh36IssB7MvaviIA7/FwvtvPpKNoBesdNEDt5VOWCiT0CHB8ymwF0lLIabFYEIaOX7joBc+IU9hDu0Gu3Xa0epxo1jaRhU5oA+PpcYN2Min5MXVSFmSZhmb4VEUGXgK1UCobq5lpRTjkdWxuCGEMk7wxwRYd80rgb2MB5YvRfAsNe27rvCGKXF3oDmeYpROXKtT0Ggnus/KVXiku5JUdOKgBeW+YF5feC+pOR08yDhAfQSrkSmnaUOn62mJzDT4UQI9XUGWOKcZemlwgYug7tF/2G5Jts6Gjm0imbSM4uPjwjRUUvArPkPloAlK0DdRo7GQftGjoQEQJkW3ioZpWg3LjHwikv9JCPwNTCMmI9THKFYD58xSFYqgLAJ3UL/oeQwMobuNQUjBGChQTmXHi+r276rcryNgOc6kWNnLwGaodZHLxs4hZ/W9vsIr0FYQM6419vPRt5GXeIxGq3pA90X31/AsOrN00tynIanoSdpXhHOV9XwLf0Prl7gKcpc6BaSV3twLGBRW6aSm7tKeQnFymMMFgwr162LdJLGXF0LqeUZI9QykgNFnAJ9Vbom4Lrd+6VzQtMQ/3UG4eTLDbUjbAwUaYBf/KIrMdoGPhvt3BTTNqnQZz6j4IzTtny0VtmaL+UW8Uswf5ht0H8OSqepK3tHnQl7RVXkS9gy10ta4e9ir93q9er3H1PZmr+Vh159iGNdLlu1+c8C4FBStaHUPf7BtOCg9KGpRzT+VBkc/bXjTu7xe2JFJsej8fQ3zsds62GmcE0ezfFOr1cone0qWg4ODg4ODg4ODg4MjLsz696PVcrlcje77x17LCaC9vHoVpEzWR0aS0uvO/bFXdTzMlutMJiuI6QBEUcgIL8de23GwepOyIToIsmJsz7kfxTZVwrgV2YS4pCzjepCUEVcxzZUoVjsYSadj054PIS1m7toxzZYYZq+ZHYzYnFzF9LC2ZD9LlNan7dBmWEZE255iiAGehI+4HnfvvgBR2szimjEBvGRsJhy3m3l/XV9tPjudP53Oy9U8DW2usInteX2PbUF6OV1W2q/zTWdFic5my3chdnvizPvlTXvSrLAxR5KSvY112qzPdOYvZGUmIU7ijSo+0byCtDlta0tB2hcUKeaVjyQRs7I+ec8cxJ2/9EzcE/fTxFZJr39NbOvgy+NEfI1/6nkGezUxk47VXsWOGXRByBgmkQTeSsTXi1np6mRVaDSXMhIO0JCNjdnE+mgT/XFV6C6upCpOzDppN8qUkCTf+/ItJfTADwmQ4grLidVqbBHxiyfC2r906+mO+JbUM1eh5FPIpD9Pxjm3XwSyvGzHv7r2LsVWKYhi9pYJkJIWbR26PYFIrt95l4BqC1/oB/+ilOQalxkhHaIlK70el5b+ny8pUHAkJrbtvUNxnugCZnMpUquwabnrHEmJ2p0QIfZqSBnsU0jQ6wCshLCoeEr0/nJwkzt6SUvhknTmDQitF7GJ8RVjmdhERcWlJZuZ3x5MXPq382iNPi0ErGnf85RChzlLfGjfMYp9thalr1aJ8zJbXaVpRXpRWgcs2x9PopMKTkJYiVkqKa642LwsE4tz+0uHj4iAOMi+h7TXSwAP19z5jHigoBpl3z5HMQvMbNSZZxl8ONFSWEV81cnGu4qtK9xIbFZ8gRHmn6tYJKY/6qxZ4uExIl1FAgLP62T/xLGAvRf6sZ0VX2Kk97XNzE9DmPaoc3WXcejY0q+g9xbcepL4/pst/gD99U5W0m7H1mYm+7V+uR2199SnWX+0/Lx6TUu2c2FLB2JkThNGL/+TDp+U7SErkBqn0Z99f11vXjrL1Wh03273Edrt+9Foeet0Ie7SknM0INyjoUOgM3J2duUsLBtfD+Mb6G8icdNOcpzWlHsUwoHkwvk/55Lbrdp/PkH6YEmeY2HFL8aPiaMj7GrXJgMxm2X3EpZZZ8ARM7HV3d4qFBvsdGJbCcCJ66XjlgPbm8whhcWOmD+2Ws+2dBT7Gsby9buW5aeE7FH63AjiCVBio//5njgtTgq+R3lvI6VPqAYYzd9jJmQ/I3EyjLho29KShG0RnNrVyTZRdoJe3fgFRCGTXS9PoPT7O9x/3m3L2r5Bhx3bzf9iAQlh9PmW/YXAOOmAJK5v/zN8ILSXm1cnsf0WM25yJInzz9Ffry9M9O2U/zW7O7MT/bNp6flmef/fpQNg1h7dvny8vWednC8bgpMNCl/zq89l3AW6vwSzfvt+tFotb124n1C0+/8XcsHBwcHBwcHBwcHBwcHBwcHBwcHBwcHBwcHBwcHBwcHxV+J/1zAvE0Cu1PMAAAAASUVORK5CYII=;" vertex="1" parent="1">
          <mxGeometry x="60" width="75.14" height="50" as="geometry" />
        </mxCell>
        <mxCell id="Z66Em0c3-RXHQDbWvUpa-7" value="" style="shape=image;imageAspect=0;aspect=fixed;verticalLabelPosition=bottom;verticalAlign=top;image=data:image/png,iVBORw0KGgoAAAANSUhEUgAAASwAAACoCAMAAABt9SM9AAAAyVBMVEX/////00I2c6VkZGQ5cqJfX19aWlo6cqFXV1dTU1P/0TeHh4f/0CwaZ57/5qPp6emzs7P/+/CdnZ3/67f/11zJycnL1+P29vb/23FnZ2d7mbZrkbW0xthsbGwaZZz/4Ih9fX3c4+uqqqri4uK7u7vQ0ND/2WX/9NqNjY3w8PCXl5fCwsL/1En/+Oj/7sP/zyJbh7D/8tD/3n7/9uH/45b/6Ky7ytqXsMlGe6leibGKpsLR2+eiuM4qaZtNf6q2xtgAWpT/5JxISEiuetEyAAAKHklEQVR4nO2d+0ObOhTHwQIFpKWiFbW2Vlq0D7XqNl9Xtrv9/3/UTcK7JRC69MaGfP1hpaRpzsdzDnk6SRLaX7n2daQ566Z8YV2/vF787Iw6qUadt8Hrr2vWDftqml8OAJzgYFMBYDa4FE6W6OVxVMQpQ2z0+MK6kV9Dp0qnlFSozoHAJUkXIwJUCNfAZd1W1norD8B8NNqsW8tWjzVYAedqdKL/jNJVRxm8kYTjG+sGs1TE6g32pebv1V4WvLJuMTudhrCU6PK9EpbSYdpepvpEvtQ5jS7nFZGoHChBczsQlyGs5PqtyrGU4INhc9nqMgzD5HpQgUpRDgYMm8tWIaxRcq0IWHiFsDq/osvrsnGPoghYiFbU1yxPWQJWyCG4BBen1agELERrVDybtc5KwCJQCErAImYVSsAiZyU8i5xVo2Fl13JyKkbV6DC0TzH65x1Dq8GehdcgQ+pAeFa5Bhte1RaehdOgKAbbkWd1r2J9Pz5i3dLd6fTjEZfSCxJ80hXNuBaEdWamWt3csjZqJ3JfK8Y0ZX2GbM46k7OynlkbtgO91CNViCrMWXlYsilzF4sXpOPAIljtMlgAF2e0BjVZ5R2qnfxbCEu+Y20eVX3UZbX5HMTlLORaV6wNpKjTujGYTmC1c6wwsOQVR8/Ev4nBdgYVLgxl+YS1idT0SuE5CEm18bCsJ9ZGUpJLugWrDFYbwWrjYJlnrK2kpE8qjgUDEu9Z8oqT7sNWfrXODPlVW7mQMLDMY9ZmUlHp2mm5X7XXULXRnqNiWHzEYZ0ozDtVO8sNCe2iOSmCJVus7aSix239KocqpDWCi9dWMaxvrA2lIfJnITa1R2HYbr+D+u6LYXGRtMhTFia1xyEIoxDue3swi2F9Z20pBb2QpqyEzXqST1i1H2GFz8WwZB4yPGl+x8dgQitA222Ko5CPqYePrWBF4+d2mttBdkcHxH5gHIuLx2H53sdKx0rzVTs8TIdzLC5gEfUcCrJ6PmMFo2gL/BnOsWSLgwFP1RbkTWzR0ir4OYD/BkEw+vkZnXLqYh1Ltu7ZGkpDlbA6o+DxokQfn6fJmZ0SVrLFwQRgRX4fvf8iP750VsKKf1idR/Ij0EddC5uveIFV6laXmYJHeN3fPnRvVqWo+IBVkrNG8amdb90z0ypXBSmZj5H0T3wMRqcFHu4ss5pFNSwOnob4g3EX6P79SVnWrgOLg37WBTYIUdfpYUUHlSyvWFtKQbh1sPBUKj1WsszaUgrCzTqM4Fn6e4qsblhbSkG4pfuf8OYNhcQeiYv9DpiZUhSFt5RyO4L1g7WlNFQ8B49miK/oORYXfVLcHE0HjnMosuJiOgvzOFQ6LnadZitxssj6T0HSUhR4MvqJJiweVsKkot1ZSgjrmGIY8tAlhdpYslDowzJ52eB9PdpkRRvWioMph1DvO4fFjWOtuVa0bEMXFg8zDrEugnVWdGFZD6wtpKlgnRVVWBYPe0JSxYGo7AKWxcMQOqvTUZ5VG/4hKDqwVlyMoHO6DoIDJV5spudZpnXCTachq4tRQByGJpms1TMvhwXWZb8qo04A/4hyJwj+lUpgmV0iHXMxK4OVe51IKoHFx3QLXQlYNSRg1RA+wZ/gxM8YsK7qdx04mQ/dRlv0swQsAYtAAlYNEcIyMxuSBKxyWc/d73dxSR42NGwnEljmDZoEPbYErGpY8Ymc6BQKP3+SoK4IYJnJhLHccFjYM0up0pWIcBNJc2EReJaAFYtge1a6keik4WFIsOUoGQxGYJvbz5J+E8RhF5U8ith1GbeYpQj6DtbNw7en31HA8vJHVLbSE8luZTM5jGL9Zt1gpjqus7fbbG7/PdQTwRGmOCAbnN0jHd2QbZY0Lf5WnrfQ00m1d5mrqybn9qxur8wSXqZp3f0QqDK6/XEGj2BmJ/rQAr21urt6EKQ2dXR73P3+fHYTrnqdPV/9Pn7ictuHkJCQkJAQgSZOo//L6DpyVN0QsAiltVq6gEUoVcAil4BVQwJWleaT5CVVWBNv7C2nniSNbVpVMpa7HP/pJ1eUPWshSb1DyW1Nqovuhca6qu0UVm8+7fEC61Bt7RSWZ0+9pYBFoBmAJR32pwIWgUBVLvxx6VXJVDuFxZsaDcv1p57j9fp5z5/3cOWxsFy7oHc0mXoLp+djvhdz64vK7Q0NTVOBNMNJcU3HhpottvxjGGP4wvljADwtzTCMP6h4BMudjnUgY9yXcp9r6VHli7z7zb30exf7kaBcB5iuatBMYLSqxZ5hg7fPswX7Wks9hC8cWBAUBUphue7CQIaDG/phpvqhDt/RAbCWaizTG/OFASjphqFrsDJ9H559E2C5pju+7bp2DzZbi37HNjCyGJbv9YbAvEXP87wYlurpqqqfL5wZJKkltOaAnqr2JnN7OQa1G158owdQGQsf+Np8eQ7hG1/ftyYGMHQaX7nwdzwOX+NhSQU5qwVNR07pjqGjxTdboOAiej0F3xX71hBWlkTlDOKeUTRrNwLOpDrpJWQXGVoTlj5OTIcxOgxfLtQshCn0rbAY/J5M3UPoWjTs2anWYKHfcWhoPVjaNFewZSAvm6wxAU4XVQFvZOLOh5OtX36WYR0WajXKtfVg5fpZ4JMa6g0A9KqXuTHRY4xrsFx9H2FBK0L7/gLWGMBaRpXln3JqXPsaLHS9f7Dgcw4h+QtY8V3opvlMBHPYGL7gAxZMWijNUIAFuyK5KsIUD1/wActRoy4PBViOmnRE0jrConzA8mLLKcCaqeknQiXPD45gwWYLWBvaKazNMPT5CkOHYhhC8PkEv+QrwcOnITKHAqz+RtehF+PjA9YwHthRgGVvdEphFkNfxwUsF/bg0RsQlpYtWh8WJK/lZlthykIDIS5gLRNzIKycPVvAgn3QYeYGHBuGs69cwIJRGAWfkZ9LyMGakcFKPSn92DSufD9hjdNWe1o6cTdW8wYsMr0mLzedgIe1BK7USt739ZYaOdq+wmqpuhe129NbKRA4GRVNtQBN0ex6ci+JJyg8LOkw88vw9WTub49hqaox9pZLR4UXaY6B6Fr6ENzpzXRgdAYWmsYbxiBLYElj8EGtN7Ftfwb8yoifjfsKS104BlyO0sLZ4czNKVryAnc0VdVVJzd4GcOHpaHHCxYGDpaEFo/Q6o6qDxMextoKxd7AciTb0XSARDOGy9xde2bA93Vj6PlwNlNdpPeWQ0PXw6Ww8+FQzcKanQ9bafqfLPSw8ux6ogo+koUFr/cEFtCkP536RavJvj8J357nYYE+2WRCuNg38Zd9/+svdVVpowePF+h4kRblVDVggSeght380AjVgOVr2Y5oE1UDVk9t7cWGhN2pBizQtdKrS/Esclj++sOweSKGZavxYnJzRQqrB8d10+pyXIsElt1fwKFh41lVw+qfG2jTns7NUZrt5Q91vRTWBG1m1BfN7jTEsr3yMBweOtycdRASEvq/9R9YYveVSwMKYAAAAABJRU5ErkJggg==;" vertex="1" parent="1">
          <mxGeometry x="-210" y="100" width="89.29" height="50" as="geometry" />
        </mxCell>
        <mxCell id="Z66Em0c3-RXHQDbWvUpa-9" value="" style="endArrow=classic;html=1;rounded=0;" edge="1" parent="1">
          <mxGeometry width="50" height="50" relative="1" as="geometry">
            <mxPoint x="100" y="190" as="sourcePoint" />
            <mxPoint x="150" y="140" as="targetPoint" />
          </mxGeometry>
        </mxCell>
        <mxCell id="Z66Em0c3-RXHQDbWvUpa-10" value="" style="endArrow=classic;html=1;rounded=0;entryX=0;entryY=0.5;entryDx=0;entryDy=0;exitX=1;exitY=0.5;exitDx=0;exitDy=0;strokeWidth=7;" edge="1" parent="1" source="Z66Em0c3-RXHQDbWvUpa-4" target="Z66Em0c3-RXHQDbWvUpa-1">
          <mxGeometry width="50" height="50" relative="1" as="geometry">
            <mxPoint x="-90" y="210" as="sourcePoint" />
            <mxPoint x="-40" y="160" as="targetPoint" />
          </mxGeometry>
        </mxCell>
        <mxCell id="Z66Em0c3-RXHQDbWvUpa-11" value="" style="endArrow=classic;html=1;rounded=0;strokeWidth=7;" edge="1" parent="1">
          <mxGeometry width="50" height="50" relative="1" as="geometry">
            <mxPoint x="230" y="178" as="sourcePoint" />
            <mxPoint x="320" y="178" as="targetPoint" />
          </mxGeometry>
        </mxCell>
        <mxCell id="Z66Em0c3-RXHQDbWvUpa-12" value="" style="endArrow=classic;html=1;rounded=0;exitX=1;exitY=0.5;exitDx=0;exitDy=0;strokeWidth=7;" edge="1" parent="1">
          <mxGeometry width="50" height="50" relative="1" as="geometry">
            <mxPoint x="480" y="175" as="sourcePoint" />
            <mxPoint x="560" y="175" as="targetPoint" />
          </mxGeometry>
        </mxCell>
        <mxCell id="Z66Em0c3-RXHQDbWvUpa-13" value="" style="sketch=0;outlineConnect=0;fontColor=#232F3E;gradientColor=none;fillColor=#8C4FFF;strokeColor=none;dashed=0;verticalLabelPosition=bottom;verticalAlign=top;align=center;html=1;fontSize=12;fontStyle=0;aspect=fixed;pointerEvents=1;shape=mxgraph.aws4.glue_data_catalog;" vertex="1" parent="1">
          <mxGeometry x="560" y="136" width="72" height="78" as="geometry" />
        </mxCell>
        <mxCell id="Z66Em0c3-RXHQDbWvUpa-14" value="" style="sketch=0;points=[[0,0,0],[0.25,0,0],[0.5,0,0],[0.75,0,0],[1,0,0],[0,1,0],[0.25,1,0],[0.5,1,0],[0.75,1,0],[1,1,0],[0,0.25,0],[0,0.5,0],[0,0.75,0],[1,0.25,0],[1,0.5,0],[1,0.75,0]];outlineConnect=0;fontColor=#232F3E;fillColor=#8C4FFF;strokeColor=#ffffff;dashed=0;verticalLabelPosition=bottom;verticalAlign=top;align=center;html=1;fontSize=12;fontStyle=0;aspect=fixed;shape=mxgraph.aws4.resourceIcon;resIcon=mxgraph.aws4.athena;" vertex="1" parent="1">
          <mxGeometry x="730" y="136" width="78" height="78" as="geometry" />
        </mxCell>
        <mxCell id="Z66Em0c3-RXHQDbWvUpa-15" value="" style="endArrow=classic;html=1;rounded=0;exitX=1;exitY=0.5;exitDx=0;exitDy=0;strokeWidth=7;" edge="1" parent="1">
          <mxGeometry width="50" height="50" relative="1" as="geometry">
            <mxPoint x="650" y="174.52" as="sourcePoint" />
            <mxPoint x="730" y="174.52" as="targetPoint" />
          </mxGeometry>
        </mxCell>
        <mxCell id="Z66Em0c3-RXHQDbWvUpa-16" value="" style="endArrow=classic;html=1;rounded=0;exitX=1;exitY=0.5;exitDx=0;exitDy=0;strokeWidth=7;" edge="1" parent="1">
          <mxGeometry width="50" height="50" relative="1" as="geometry">
            <mxPoint x="830" y="174.52" as="sourcePoint" />
            <mxPoint x="910" y="174.52" as="targetPoint" />
          </mxGeometry>
        </mxCell>
      </root>
    </mxGraphModel>
  </diagram>
</mxfile>
